<?xml version="1.0" standalone="no"?>
<!DOCTYPE svg PUBLIC "-//W3C//DTD SVG 20010904//EN"
 "http://www.w3.org/TR/2001/REC-SVG-20010904/DTD/svg10.dtd">
<svg version="1.0" xmlns="http://www.w3.org/2000/svg"
 width="300.000000pt" height="300.000000pt" viewBox="0 0 300.000000 300.000000"
 preserveAspectRatio="xMidYMid meet">
<metadata>
Created by potrace 1.11, written by Peter Selinger 2001-2013
</metadata>
<g transform="translate(0.000000,300.000000) scale(0.100000,-0.100000)"
fill="#000000" stroke="none">
<path d="M1048 2378 c-20 -35 -102 -178 -183 -318 -81 -140 -158 -273 -170
-295 -13 -22 -80 -139 -150 -260 -70 -121 -136 -236 -147 -255 -47 -81 -362
-628 -380 -657 l-20 -33 139 0 138 0 55 97 c30 53 67 117 82 142 15 25 33 57
41 71 17 32 229 399 320 555 38 66 83 145 100 175 17 30 38 66 47 80 9 14 50
85 91 157 41 73 77 133 80 133 3 0 34 -52 70 -115 l65 -114 68 116 68 116 -23
45 c-30 56 -33 63 -148 260 -51 89 -96 162 -100 162 -4 0 -23 -28 -43 -62z"/>
<path d="M1700 2088 c-112 -194 -215 -373 -230 -398 -22 -36 -462 -799 -505
-875 -6 -11 -22 -38 -36 -60 -13 -22 -33 -56 -44 -76 -11 -20 -30 -55 -43 -78
l-22 -41 681 0 680 0 -32 58 c-18 31 -98 170 -177 307 -80 138 -153 264 -162
280 -9 17 -52 90 -94 163 -42 73 -76 135 -76 138 0 3 85 152 189 333 105 180
195 339 202 354 11 24 6 36 -52 137 -35 60 -66 110 -70 110 -4 0 -98 -159
-209 -352z m-154 -901 c23 -39 75 -128 114 -197 115 -197 111 -190 97 -191
-16 -1 -510 -1 -520 0 -7 1 7 30 38 80 15 24 77 131 100 172 58 105 121 209
125 209 3 0 24 -33 46 -73z"/>
<path d="M2113 1860 c-35 -60 -63 -114 -63 -119 0 -5 17 -39 38 -75 20 -35
172 -299 337 -585 l300 -520 138 -1 139 0 -20 33 c-11 17 -70 120 -131 227
-61 107 -116 202 -121 210 -24 41 -278 478 -295 509 -95 170 -249 431 -254
431 -3 0 -34 -50 -68 -110z"/>
</g>
</svg>
